REM DIRINDEX 1\5,1\2\6,1\2\7,1\3\8,1\3\9,1\3\10,1\3\11,1\4\12,1\4\13,1\4\14
REM DIRNAME cjc043,folder01,folder02,folder03,folder04,folder05,folder06,folder07,folder08,folder09,folder10,folder11,folder12,folder13
TITLE ""
FILE "5Q_t_498-522.mp3" MP3
  TRACK 01 AUDIO
    TITLE "5:cjc043_1425"
    INDEX 01 00:00:00
  TRACK 02 AUDIO
    TITLE "0:"
    INDEX 01 00:03:41
  TRACK 03 AUDIO
    TITLE "5:cjc043_1426"
    INDEX 01 00:04:19
  TRACK 04 AUDIO
    TITLE "0:"
    INDEX 01 00:05:07
  TRACK 05 AUDIO
    TITLE "6:cjc043_1427"
    INDEX 01 00:05:63
  TRACK 06 AUDIO
    TITLE "0:"
    INDEX 01 00:06:57
  TRACK 07 AUDIO
    TITLE "7:cjc043_1428"
    INDEX 01 00:07:41
  TRACK 08 AUDIO
    TITLE "0:"
    INDEX 01 00:08:32
  TRACK 09 AUDIO
    TITLE "6:cjc043_1429"
    INDEX 01 00:09:06
  TRACK 10 AUDIO
    TITLE "0:"
    INDEX 01 00:10:04
  TRACK 11 AUDIO
    TITLE "7:cjc043_1430"
    INDEX 01 00:10:57
  TRACK 12 AUDIO
    TITLE "0:"
    INDEX 01 00:11:33
  TRACK 13 AUDIO
    TITLE "6:cjc043_1431"
    INDEX 01 00:12:16
  TRACK 14 AUDIO
    TITLE "0:"
    INDEX 01 00:13:18
  TRACK 15 AUDIO
    TITLE "7:cjc043_1432"
    INDEX 01 00:14:00
  TRACK 16 AUDIO
    TITLE "0:"
    INDEX 01 00:14:70
  TRACK 17 AUDIO
    TITLE "6:cjc043_1433"
    INDEX 01 00:15:50
  TRACK 18 AUDIO
    TITLE "0:"
    INDEX 01 00:16:55
  TRACK 19 AUDIO
    TITLE "7:cjc043_1434"
    INDEX 01 00:17:37
  TRACK 20 AUDIO
    TITLE "0:"
    INDEX 01 00:18:25
  TRACK 21 AUDIO
    TITLE "6:cjc043_1435"
    INDEX 01 00:19:07
  TRACK 22 AUDIO
    TITLE "0:"
    INDEX 01 00:20:14
  TRACK 23 AUDIO
    TITLE "7:cjc043_1436"
    INDEX 01 00:20:69
  TRACK 24 AUDIO
    TITLE "0:"
    INDEX 01 00:21:49
  TRACK 25 AUDIO
    TITLE "6:cjc043_1437"
    INDEX 01 00:22:32
  TRACK 26 AUDIO
    TITLE "0:"
    INDEX 01 00:23:42
  TRACK 27 AUDIO
    TITLE "7:cjc043_1438"
    INDEX 01 00:24:24
  TRACK 28 AUDIO
    TITLE "0:"
    INDEX 01 00:25:17
  TRACK 29 AUDIO
    TITLE "6:cjc043_1439"
    INDEX 01 00:25:70
  TRACK 30 AUDIO
    TITLE "0:"
    INDEX 01 00:27:00
  TRACK 31 AUDIO
    TITLE "7:cjc043_1440"
    INDEX 01 00:27:61
  TRACK 32 AUDIO
    TITLE "0:"
    INDEX 01 00:28:51
  TRACK 33 AUDIO
    TITLE "6:cjc043_1441"
    INDEX 01 00:29:31
  TRACK 34 AUDIO
    TITLE "0:"
    INDEX 01 00:30:24
  TRACK 35 AUDIO
    TITLE "7:cjc043_1442"
    INDEX 01 00:31:00
  TRACK 36 AUDIO
    TITLE "0:"
    INDEX 01 00:31:69
  TRACK 37 AUDIO
    TITLE "6:cjc043_1443"
    INDEX 01 00:32:48
  TRACK 38 AUDIO
    TITLE "0:"
    INDEX 01 00:33:56
  TRACK 39 AUDIO
    TITLE "7:cjc043_1444"
    INDEX 01 00:34:36
  TRACK 40 AUDIO
    TITLE "0:"
    INDEX 01 00:35:29
  TRACK 41 AUDIO
    TITLE "6:cjc043_1445"
    INDEX 01 00:36:07
  TRACK 42 AUDIO
    TITLE "0:"
    INDEX 01 00:37:03
  TRACK 43 AUDIO
    TITLE "7:cjc043_1446"
    INDEX 01 00:37:61
  TRACK 44 AUDIO
    TITLE "0:"
    INDEX 01 00:38:57
  TRACK 45 AUDIO
    TITLE "6:cjc043_1447"
    INDEX 01 00:39:37
  TRACK 46 AUDIO
    TITLE "0:"
    INDEX 01 00:40:46
  TRACK 47 AUDIO
    TITLE "7:cjc043_1448"
    INDEX 01 00:41:26
  TRACK 48 AUDIO
    TITLE "0:"
    INDEX 01 00:42:41
  TRACK 49 AUDIO
    TITLE "6:cjc043_1449"
    INDEX 01 00:43:09
  TRACK 50 AUDIO
    TITLE "0:"
    INDEX 01 00:44:20
  TRACK 51 AUDIO
    TITLE "7:cjc043_1450"
    INDEX 01 00:45:04
  TRACK 52 AUDIO
    TITLE "0:"
    INDEX 01 00:46:07
  TRACK 53 AUDIO
    TITLE "6:cjc043_1451"
    INDEX 01 00:46:64
  TRACK 54 AUDIO
    TITLE "0:"
    INDEX 01 00:48:18
  TRACK 55 AUDIO
    TITLE "7:cjc043_1452"
    INDEX 01 00:48:73
  TRACK 56 AUDIO
    TITLE "0:"
    INDEX 01 00:50:17
  TRACK 57 AUDIO
    TITLE "6:cjc043_1453"
    INDEX 01 00:50:72
  TRACK 58 AUDIO
    TITLE "0:"
    INDEX 01 00:52:24
  TRACK 59 AUDIO
    TITLE "7:cjc043_1454"
    INDEX 01 00:53:08
  TRACK 60 AUDIO
    TITLE "0:"
    INDEX 01 00:54:25
  TRACK 61 AUDIO
    TITLE "6:cjc043_1455"
    INDEX 01 00:55:04
  TRACK 62 AUDIO
    TITLE "0:"
    INDEX 01 00:56:31
  TRACK 63 AUDIO
    TITLE "7:cjc043_1456"
    INDEX 01 00:57:11
  TRACK 64 AUDIO
    TITLE "0:"
    INDEX 01 00:58:22
  TRACK 65 AUDIO
    TITLE "6:cjc043_1457"
    INDEX 01 00:58:71
  TRACK 66 AUDIO
    TITLE "0:"
    INDEX 01 01:00:31
  TRACK 67 AUDIO
    TITLE "7:cjc043_1458"
    INDEX 01 01:01:09
  TRACK 68 AUDIO
    TITLE "0:"
    INDEX 01 01:02:28
  TRACK 69 AUDIO
    TITLE "6:cjc043_1459"
    INDEX 01 01:03:02
  TRACK 70 AUDIO
    TITLE "0:"
    INDEX 01 01:04:41
  TRACK 71 AUDIO
    TITLE "7:cjc043_1460"
    INDEX 01 01:05:21
  TRACK 72 AUDIO
    TITLE "0:"
    INDEX 01 01:06:38
  TRACK 73 AUDIO
    TITLE "6:cjc043_1461"
    INDEX 01 01:07:17
  TRACK 74 AUDIO
    TITLE "0:"
    INDEX 01 01:08:42
  TRACK 75 AUDIO
    TITLE "7:cjc043_1462"
    INDEX 01 01:09:22
  TRACK 76 AUDIO
    TITLE "0:"
    INDEX 01 01:10:45
  TRACK 77 AUDIO
    TITLE "6:cjc043_1463"
    INDEX 01 01:11:19
  TRACK 78 AUDIO
    TITLE "0:"
    INDEX 01 01:12:54
  TRACK 79 AUDIO
    TITLE "7:cjc043_1464"
    INDEX 01 01:13:36
  TRACK 80 AUDIO
    TITLE "0:"
    INDEX 01 01:14:55
  TRACK 81 AUDIO
    TITLE "6:cjc043_1465"
    INDEX 01 01:15:35
  TRACK 82 AUDIO
    TITLE "0:"
    INDEX 01 01:16:36
  TRACK 83 AUDIO
    TITLE "7:cjc043_1466"
    INDEX 01 01:17:18
  TRACK 84 AUDIO
    TITLE "0:"
    INDEX 01 01:18:19
  TRACK 85 AUDIO
    TITLE "6:cjc043_1467"
    INDEX 01 01:19:01
  TRACK 86 AUDIO
    TITLE "0:"
    INDEX 01 01:20:02
  TRACK 87 AUDIO
    TITLE "7:cjc043_1468"
    INDEX 01 01:20:57
  TRACK 88 AUDIO
    TITLE "0:"
    INDEX 01 01:22:01
  TRACK 89 AUDIO
    TITLE "6:cjc043_1469"
    INDEX 01 01:22:56
  TRACK 90 AUDIO
    TITLE "0:"
    INDEX 01 01:23:63
  TRACK 91 AUDIO
    TITLE "7:cjc043_1470"
    INDEX 01 01:24:43
  TRACK 92 AUDIO
    TITLE "0:"
    INDEX 01 01:25:57
  TRACK 93 AUDIO
    TITLE "6:cjc043_1471"
    INDEX 01 01:26:40
  TRACK 94 AUDIO
    TITLE "0:"
    INDEX 01 01:27:44
  TRACK 95 AUDIO
    TITLE "7:cjc043_1472"
    INDEX 01 01:28:29
  TRACK 96 AUDIO
    TITLE "0:"
    INDEX 01 01:29:37
  TRACK 97 AUDIO
    TITLE "6:cjc043_1473"
    INDEX 01 01:30:17
  TRACK 98 AUDIO
    TITLE "0:"
    INDEX 01 01:31:28
  TRACK 99 AUDIO
    TITLE "7:cjc043_1474"
    INDEX 01 01:32:10
  TRACK 100 AUDIO
    TITLE "0:"
    INDEX 01 01:33:25
  TRACK 101 AUDIO
    TITLE "6:cjc043_1475"
    INDEX 01 01:34:08
  TRACK 102 AUDIO
    TITLE "0:"
    INDEX 01 01:35:20
  TRACK 103 AUDIO
    TITLE "7:cjc043_1476"
    INDEX 01 01:36:00
  TRACK 104 AUDIO
    TITLE "0:"
    INDEX 01 01:37:13
